<svg xmlns="http://www.w3.org/2000/svg" width="41.594" height="41.594" viewBox="0 0 41.594 41.594">
  <path id="Icon_awesome-facebook-square" data-name="Icon awesome-facebook-square" d="M37.137,2.25H4.456A4.456,4.456,0,0,0,0,6.706V39.387a4.456,4.456,0,0,0,4.456,4.456H17.2V29.7H11.35V23.047H17.2V17.974c0-5.77,3.435-8.958,8.7-8.958a35.435,35.435,0,0,1,5.155.449v5.663h-2.9c-2.86,0-3.753,1.775-3.753,3.6v4.322H30.78L29.759,29.7H24.395V43.844H37.137a4.456,4.456,0,0,0,4.456-4.456V6.706A4.456,4.456,0,0,0,37.137,2.25Z" transform="translate(0 -2.25)" fill="#fff"/>
</svg>
