<svg xmlns="http://www.w3.org/2000/svg" width="41.594" height="41.594" viewBox="0 0 41.594 41.594">
  <path id="Icon_awesome-linkedin" data-name="Icon awesome-linkedin" d="M38.623,2.25H2.962A2.984,2.984,0,0,0,0,5.249v35.6a2.984,2.984,0,0,0,2.962,3H38.623a2.992,2.992,0,0,0,2.971-3V5.249A2.992,2.992,0,0,0,38.623,2.25ZM12.571,37.9H6.406V18.052H12.58V37.9ZM9.489,15.341a3.574,3.574,0,1,1,3.574-3.574A3.576,3.576,0,0,1,9.489,15.341ZM35.68,37.9H29.515V28.246c0-2.3-.046-5.264-3.2-5.264-3.212,0-3.7,2.507-3.7,5.1V37.9H16.443V18.052h5.914v2.711h.084a6.493,6.493,0,0,1,5.84-3.2c6.239,0,7.4,4.113,7.4,9.461Z" transform="translate(0 -2.25)" fill="#fff"/>
</svg>
