<svg xmlns="http://www.w3.org/2000/svg" width="41.594" height="41.594" viewBox="0 0 41.594 41.594">
  <path id="Icon_simple-instagram" data-name="Icon simple-instagram" d="M20.8,0c-5.65,0-6.355.026-8.574.125a15.335,15.335,0,0,0-5.048.967A10.184,10.184,0,0,0,3.49,3.49a10.147,10.147,0,0,0-2.4,3.685,15.29,15.29,0,0,0-.967,5.048C.021,14.442,0,15.147,0,20.8s.026,6.355.125,8.574a15.345,15.345,0,0,0,.967,5.048A10.2,10.2,0,0,0,3.49,38.1a10.17,10.17,0,0,0,3.685,2.4,15.354,15.354,0,0,0,5.048.967c2.218.1,2.924.125,8.574.125s6.355-.026,8.574-.125a15.39,15.39,0,0,0,5.048-.967A10.628,10.628,0,0,0,40.5,34.419a15.345,15.345,0,0,0,.967-5.048c.1-2.218.125-2.924.125-8.574s-.026-6.355-.125-8.574A15.38,15.38,0,0,0,40.5,7.175,10.207,10.207,0,0,0,38.1,3.49a10.133,10.133,0,0,0-3.685-2.4A15.3,15.3,0,0,0,29.37.125C27.152.021,26.447,0,20.8,0Zm0,3.743c5.551,0,6.213.028,8.405.123a11.458,11.458,0,0,1,3.86.719A6.844,6.844,0,0,1,37.01,8.532a11.482,11.482,0,0,1,.716,3.86c.1,2.194.121,2.853.121,8.405s-.026,6.213-.128,8.405a11.7,11.7,0,0,1-.73,3.86,6.6,6.6,0,0,1-1.558,2.4,6.488,6.488,0,0,1-2.392,1.553,11.567,11.567,0,0,1-3.873.716c-2.208.1-2.858.121-8.421.121s-6.215-.026-8.421-.128a11.792,11.792,0,0,1-3.875-.73,6.44,6.44,0,0,1-2.39-1.558A6.315,6.315,0,0,1,4.5,33.039a11.8,11.8,0,0,1-.728-3.873c-.078-2.184-.106-2.858-.106-8.4s.028-6.215.106-8.424A11.789,11.789,0,0,1,4.5,8.475a6.165,6.165,0,0,1,1.56-2.393,6.151,6.151,0,0,1,2.39-1.556A11.511,11.511,0,0,1,12.3,3.8c2.21-.078,2.86-.1,8.421-.1l.078.052Zm0,6.374A10.679,10.679,0,1,0,31.476,20.8,10.678,10.678,0,0,0,20.8,10.118Zm0,17.611A6.932,6.932,0,1,1,27.729,20.8,6.93,6.93,0,0,1,20.8,27.729ZM34.395,9.7A2.5,2.5,0,1,1,31.9,7.2,2.5,2.5,0,0,1,34.395,9.7Z" fill="#fff"/>
</svg>
